<?xml version="1.0" encoding="utf-8"?>
<!-- Generator: Adobe Illustrator 17.0.0, SVG Export Plug-In . SVG Version: 6.00 Build 0)  -->
<!DOCTYPE svg PUBLIC "-//W3C//DTD SVG 1.1//EN" "http://www.w3.org/Graphics/SVG/1.1/DTD/svg11.dtd">
<svg version="1.1" id="Layer_1" xmlns="http://www.w3.org/2000/svg" xmlns:xlink="http://www.w3.org/1999/xlink" x="0px" y="0px"
	 width="200px" height="200px" viewBox="-24.5 901.5 200 200" enable-background="new -24.5 901.5 200 200" xml:space="preserve">
<g>
	<path fill="#131313" d="M113.072,916.248h-10.716L113.5,928.34v5.756H90.546v-6.739h11.142l-11.142-12.093V909.5h22.526V916.248
		L113.072,916.248z M85.996,916.248H75.28l11.144,12.092v5.756H63.47v-6.739h11.143L63.47,915.264V909.5h22.526L85.996,916.248
		L85.996,916.248z M59.185,916.522H47.622v10.553h11.563v7.021H39.403V909.5h19.782V916.522z"/>
</g>
<polygon fill="#1572B6" points="22.331,1077.119 10.5,945.713 140.5,945.713 128.658,1077.098 75.42,1091.713 "/>
<polygon fill="#33A9DC" points="76.057,1080.548 118.78,1068.703 128.831,956.101 76.057,956.101 "/>
<g>
	<polygon fill="#FFFFFF" points="76.056,1003.848 97.444,1003.848 98.922,987.296 76.056,987.296 76.056,971.132 76.112,971.132 
		116.587,971.132 116.199,975.469 112.226,1020.011 76.056,1020.011 	"/>
	<polygon fill="#EBEBEB" points="76.153,1045.825 76.082,1045.845 58.081,1040.984 56.93,1028.093 48.183,1028.093 40.705,1028.093 
		42.969,1053.471 76.078,1062.663 76.153,1062.642 	"/>
	<polygon fill="#FFFFFF" points="96.071,1019.327 94.124,1040.973 76.097,1045.839 76.097,1062.655 109.233,1053.471 
		109.476,1050.741 112.288,1019.327 	"/>
	<polygon fill="#EBEBEB" points="76.112,971.132 76.112,981.171 76.112,987.256 76.112,987.296 37.121,987.296 37.121,987.296 
		37.07,987.296 36.745,983.663 36.009,975.469 35.622,971.132 	"/>
	<polygon fill="#EBEBEB" points="76.056,1003.85 76.056,1013.889 76.056,1019.973 76.056,1020.013 58.334,1020.013 58.334,1020.013 
		58.283,1020.013 57.959,1016.381 57.222,1008.186 56.835,1003.85 	"/>
</g>
</svg>
